<?xml version="1.0" encoding="utf-8"?>
<svg version="1.1" xmlns="http://www.w3.org/2000/svg" xmlns:xlink="http://www.w3.org/1999/xlink" x="0px" y="0px"
	 viewBox="0 0 69 87" style="width: 552px; height: 696px;" xml:space="preserve" shape-rendering="crispEdges">
<style type="text/css">
	.st1{font-family: monospace; font-size: 2px; letter-spacing: 0.2px; text-anchor: end;}
	.st2{font-family: monospace; font-size: 2px;}
	.st3{font-family: monospace; font-size: 2px; text-anchor: middle;}
	.empty{fill: #EFEBE7; opacity: 0.8;}
	.activity{fill: #FF5CDB;}
	.contributor{fill: #ffcf53;}
	.community{fill: #5653ff;}
	.starshine{opacity: 0; fill: white;}
</style>
/* Define XP Stars */
<defs>
	<g id="star" width="3" height="3">
		<rect x="1" y="0" width="1" height="1" />
		<rect x="0" y="1" width="1" height="1" />
		<rect x="1" y="1" width="1" height="1" />
		<rect x="2" y="1" width="1" height="1" />
		<rect x="1" y="2" width="1" height="1" />	
	</g>
	<g id="starrow" class="empty" width="21" height="3">
		<use x="0" xlink:href="#star"/>
		<use x="5" xlink:href="#star"/>
		<use x="10" xlink:href="#star"/>
	</g>	
	<g id="earnedxp" width="3" height="3">
		<use x="0" xlink:href="#star"/>
		<rect class="starshine" x="0" y="1" width="1" height="1"><animate attributeName="opacity" values="0;.8;0" dur="5s" begin="0s" repeatCount="indefinite" /></rect>
		<rect class="starshine" x="1" y="2" width="1" height="1"><animate attributeName="opacity" values="0;.8;0" dur="5s" begin="2s" repeatCount="indefinite" /></rect>
		<rect class="starshine" x="1" y="1" width="1" height="1"><animate attributeName="opacity" values="0;.5;0" dur="5s" begin="1200ms" repeatCount="indefinite" /></rect>
		<rect class="starshine" x="2" y="1" width="1" height="1"><animate attributeName="opacity" values="0;.4;0" dur="5s" begin="3s" repeatCount="indefinite" /></rect>
	</g>
	<g id="counter">
		<use x="3" xlink:href="#star"/>
		<rect class="starshine" x="3" y="1" width="1" height="1"><animate attributeName="opacity" values="0;.6;0" dur="3s" begin="0s" repeatCount="indefinite" /></rect>
		<rect class="starshine" x="4" y="2" width="1" height="1"><animate attributeName="opacity" values="0;.9;0" dur="3s" begin="2s" repeatCount="indefinite" /></rect>
		<rect class="starshine" x="4" y="1" width="1" height="1"><animate attributeName="opacity" values="0;.5;0" dur="3s" begin="1200ms" repeatCount="indefinite" /></rect>	
		<rect x="0" y="0" width="1" height="1" />
		<rect x="1" y="2" width="1" height="1" />
		<rect x="7" y="0" width="1" height="1" />
		<rect class="starshine" x="0" y="0" width="1" height="1"><animate attributeName="opacity" values="0;.6;0" dur="4s" begin="0s" repeatCount="indefinite" /></rect>
		<rect class="starshine" x="1" y="2" width="1" height="1"><animate attributeName="opacity" values="0;.9;0" dur="4s" begin="2s" repeatCount="indefinite" /></rect>
		<rect class="starshine" x="7" y="0" width="1" height="1"><animate attributeName="opacity" values="0;.8;0" dur="4s" begin="3s" repeatCount="indefinite" /></rect>
	</g>	
/* Define glow filter */
	<filter id="glow" x="-30%" y="-30%" width="160%" height="160%">
	    <feFlood result="flood" flood-color="#bbbbbb" flood-opacity=".1"></feFlood>
	    <feComposite in="flood" result="mask" in2="SourceGraphic" operator="in"></feComposite>
	    <feMorphology in="mask" result="dilated" operator="dilate" radius="4"></feMorphology>
	    <feGaussianBlur in="dilated" result="blurred" stdDeviation="3"></feGaussianBlur>
	    <feMerge><feMergeNode in="blurred"></feMergeNode><feMergeNode in="SourceGraphic"></feMergeNode></feMerge>
	</filter>
</defs>
/* Tamagotchi shape */
<g filter="url(#glow)"><path d="M60.5683 42.4258C62.4008 68.8515 59.2417 79 34.456 79C9.67025 79 6.65071 69.3435 8.41338 42.6718C10.1761 16 14.7636 8 34.456 8C54.1484 8 58.7359 16 60.5683 42.4258Z" fill="white"/></g>
/* Stats */
<g transform="translate(36 51)">
	<text><tspan x="-2" y="2" class="st1">ACTIVITY</tspan><tspan x="-2" y="7" class="st1">CONTRIBUTOR</tspan><tspan x="-2" y="12" class="st1">COMMUNITY</tspan></text>
	/* Activity */
	<use x="0" y="0" xlink:href="#starrow"/>
	<use x="0" y="0" xlink:href="#earnedxp" class="activity"/>
	<use x="5" y="0" xlink:href="#earnedxp" class="activity"/>
	<use x="10" y="0" xlink:href="#earnedxp" class="activity"/>
	/* Contributor */
	<use x="0" y="5" xlink:href="#counter" class="contributor"/>
	<text x="9" y="7" class="st2">x7</text>
	/* Community */
	<use x="0" y="10" xlink:href="#starrow"/>
	<use x="0" y="10" xlink:href="#earnedxp" class="community"/>
</g>
<text class="st3"><tspan x="35" y="69">Backed Community Member</tspan><tspan x="35" y="72">0x128a...175f</tspan></text>
/* Bunny PFP */
<g transform="translate(15 13)">
	<svg width="39" height="39" viewBox="0 0 39 39" fill="none" xmlns="http://www.w3.org/2000/svg">
		<rect x="11" y="14" width="17" height="17" fill="#010101"/>
		<rect x="12" y="15" width="15" height="15" fill="#fefefe"/>
		<rect x="25" y="16" width="1" height="13" fill="#010101"/>
		<rect x="13" y="16" width="1" height="13" fill="#010101"/>
		<rect x="18" y="16" width="3" height="1" fill="#010101"/>
		<rect x="6" y="8" width="1" height="4" fill="#010101"/>
		<rect x="16" y="8" width="1" height="2" fill="#010101"/>
		<rect x="24" y="2" width="1" height="2" fill="#010101"/>
		<rect x="20" y="8" width="1" height="4" fill="#010101"/>
		<rect x="19" y="4" width="1" height="4" fill="#010101"/>
		<rect x="25" y="4" width="1" height="3" fill="#010101"/>
		<rect x="26" y="7" width="1" height="3" fill="#010101"/>
		<rect x="25" y="10" width="1" height="4" fill="#010101"/>
		<rect x="13" y="13" width="1" height="2" fill="#010101"/>
		<rect x="14" y="15" width="1" height="2" fill="#010101"/>
		<rect x="24" y="14" width="1" height="3" fill="#010101"/>
		<rect x="17" y="10" width="1" height="7" fill="#010101"/>
		<rect x="21" y="12" width="1" height="5" fill="#010101"/>
		<rect x="7" y="7" width="1" height="1" fill="#010101"/>
		<rect x="14" y="6" width="1" height="1" fill="#010101"/>
		<rect x="15" y="7" width="1" height="1" fill="#010101"/>
		<rect x="20" y="2" width="1" height="2" fill="#010101"/>
		<rect x="14" y="9" width="1" height="1" fill="#010101"/>
		<rect x="12" y="12" width="1" height="1" fill="#010101"/>
		<rect x="8" y="6" width="3" height="1" fill="#010101"/>
		<rect x="7" y="12" width="3" height="1" fill="#010101"/>
		<rect x="12" y="10" width="2" height="1" fill="#010101"/>
		<rect x="10" y="11" width="3" height="1" fill="#010101"/>
		<rect x="11" y="5" width="3" height="1" fill="#010101"/>
		<rect x="11" y="6" width="3" height="1" fill="#FEFEFE"/>
		<rect x="21" y="2" width="3" height="2" fill="#FEFEFE"/>
		<rect x="20" y="4" width="5" height="3" fill="#FEFEFE"/>
		<rect x="20" y="7" width="6" height="1" fill="#FEFEFE"/>
		<rect x="21" y="8" width="5" height="2" fill="#FEFEFE"/>
		<rect x="21" y="10" width="4" height="2" fill="#FEFEFE"/>
		<rect x="22" y="12" width="3" height="2" fill="#FEFEFE"/>
		<rect x="22" y="14" width="2" height="3" fill="#FEFEFE"/>
		<rect x="14" y="10" width="3" height="1" fill="#FEFEFE"/>
		<rect x="13" y="11" width="4" height="2" fill="#FEFEFE"/>
		<rect x="14" y="13" width="3" height="2" fill="#FEFEFE"/>
		<rect x="15" y="15" width="2" height="2" fill="#FEFEFE"/>
		<rect x="7" y="11" width="3" height="1" fill="#FEFEFE"/>
		<rect x="8" y="7" width="7" height="1" fill="#FEFEFE"/>
		<rect x="7" y="8" width="9" height="1" fill="#FEFEFE"/>
		<rect x="15" y="9" width="1" height="1" fill="#FEFEFE"/>
		<rect x="7" y="9" width="7" height="1" fill="#FEFEFE"/>
		<rect x="7" y="10" width="5" height="1" fill="#FEFEFE"/>
		<rect x="21" y="1" width="3" height="1" fill="#010101"/>
		<rect x="14" y="28" width="11" height="1" fill="#010101"/>
		<rect x="14" y="17" width="11" height="11" fill="#FEFEFE"/>
		<rect x="16" y="20" width="1" height="1" fill="#010101"/>
		<rect x="22" y="20" width="1" height="1" fill="#010101"/>
		<rect x="15" y="21" width="1" height="1" fill="#010101"/>
		<rect x="17" y="21" width="1" height="1" fill="#010101"/>
		<rect x="21" y="21" width="1" height="1" fill="#010101"/>
		<rect x="23" y="21" width="1" height="1" fill="#010101"/>
		<rect x="18" y="24" width="3" height="1" fill="#010101"/>
		<rect x="19" y="25" width="1" height="1" fill="#010101"/>
	</svg>
</g>

/* Special Trait */
<g transform="translate(15 13)">
	<svg width="39" height="39" viewBox="0 0 39 39" fill="none" xmlns="http://www.w3.org/2000/svg">
	<rect x="7" y="28" width="1" height="1" fill="#241F89"/>
	<rect x="8" y="29" width="1" height="1" fill="#241F89"/>
	<rect x="13" y="29" width="1" height="1" fill="#241F89"/>
	<rect x="14" y="29" width="2" height="1" fill="#423BDC"/>
	<rect x="16" y="29" width="1" height="1" fill="#241F89"/>
	<rect x="17" y="29" width="4" height="1" fill="#423BDC"/>
	<rect x="21" y="29" width="1" height="1" fill="#241F89"/>
	<rect x="22" y="29" width="2" height="1" fill="#423BDC"/>
	<rect x="24" y="29" width="1" height="1" fill="#241F89"/>
	<rect x="8" y="30" width="1" height="1" fill="#241F89"/>
	<rect x="12" y="30" width="1" height="1" fill="#241F89"/>
	<rect x="13" y="30" width="2" height="1" fill="#423BDC"/>
	<rect x="15" y="30" width="1" height="1" fill="#241F89"/>
	<rect x="16" y="30" width="4" height="1" fill="#423BDC"/>
	<rect x="20" y="30" width="1" height="1" fill="#241F89"/>
	<rect x="21" y="30" width="3" height="1" fill="#423BDC"/>
	<rect x="24" y="30" width="1" height="1" fill="#241F89"/>
	<rect x="7" y="30" width="1" height="1" fill="#423BDC"/>
	<rect x="8" y="31" width="1" height="1" fill="#423BDC"/>
	<rect x="9" y="31" width="3" height="1" fill="#241F89"/>
	<rect x="12" y="31" width="3" height="1" fill="#423BDC"/>
	<rect x="15" y="31" width="1" height="1" fill="#241F89"/>
	<rect x="16" y="31" width="4" height="1" fill="#423BDC"/>
	<rect x="20" y="31" width="1" height="1" fill="#241F89"/>
	<rect x="21" y="31" width="2" height="1" fill="#423BDC"/>
	<rect x="23" y="31" width="1" height="1" fill="#241F89"/>
	<rect x="8" y="32" width="7" height="1" fill="#423BDC"/>
	<rect x="15" y="32" width="1" height="1" fill="#241F89"/>
	<rect x="16" y="32" width="4" height="1" fill="#423BDC"/>
	<rect x="20" y="32" width="1" height="1" fill="#241F89"/>
	<rect x="7" y="32" width="1" height="1" fill="#423BDC"/>
	<rect x="8" y="33" width="7" height="1" fill="#423BDC"/>
	<rect x="16" y="33" width="5" height="1" fill="#423BDC"/>
	<rect x="21" y="33" width="1" height="1" fill="#241F89"/>
	<rect x="10" y="34" width="3" height="1" fill="#423BDC"/>
	<rect x="17" y="34" width="4" height="1" fill="#423BDC"/>
	<rect x="21" y="34" width="1" height="1" fill="#241F89"/>
	<rect x="17" y="35" width="4" height="1" fill="#423BDC"/>
	<rect x="21" y="35" width="1" height="1" fill="#241F89"/>
	<rect x="16" y="36" width="1" height="1" fill="#423BDC"/>
	<rect x="18" y="36" width="1" height="1" fill="#423BDC"/>
	<rect x="20" y="36" width="1" height="1" fill="#241F89"/>
	</svg>
</g>
</svg>
