<?xml version="1.0" encoding="utf-8"?>
<svg version="1.1" xmlns="http://www.w3.org/2000/svg" xmlns:xlink="http://www.w3.org/1999/xlink" x="0px" y="0px"
	 viewBox="0 0 79 99" style="width: 474; height: 594; margin: 100px auto;" xml:space="preserve">

<style type="text/css">
	.checker{fill: #fff; opacity: 0.8;}
	.background{fill: #EFEBE7; opacity: 0.4;}
	.st1{font-family: monospace; font-size: 2px; letter-spacing: 0.2px; text-anchor: end;}
	.st2{font-family: monospace; font-size: 2px;}
	.st3{font-family: monospace; font-size: 2px; text-anchor: middle;}
	.empty{fill: #EFEBE7; opacity: 0.8;}
	.activity{fill: #FF5CDB;}
	.contributor{fill: #5653ff;}
	.community{fill: #ffcf53;}
	.starshine{opacity: 0; fill: white;}
</style>

/* Define XP Stars */
<defs>
	<g id="star" widht="3" height="3">
		<rect x="1" y="0" width="1" height="1" />
		<rect x="0" y="1" width="1" height="1" />
		<rect x="1" y="1" width="1" height="1" />
		<rect x="2" y="1" width="1" height="1" />
		<rect x="1" y="2" width="1" height="1" />	
	</g>
	<g id="starrow" class="empty" width="21" height="3">
		<use x="0" xlink:href="#star"/>
		<use x="5" xlink:href="#star"/>
		<use x="10" xlink:href="#star"/>
	</g>	
	<g id="earnedxp" width="3" height="3">
		<use x="0" xlink:href="#star"/>
		<rect class="starshine" x="0" y="1" width="1" height="1"><animate attributeName="opacity" values="0;.6;0" dur="5s" begin="0s" repeatCount="indefinite" /></rect>
		<rect class="starshine" x="1" y="2" width="1" height="1"><animate attributeName="opacity" values="0;.8;0" dur="5s" begin="2s" repeatCount="indefinite" /></rect>
		<rect class="starshine" x="1" y="1" width="1" height="1"><animate attributeName="opacity" values="0;.5;0" dur="5s" begin="1200ms" repeatCount="indefinite" /></rect>
	</g>
	<g id="counter">
		<use x="3" xlink:href="#star"/>
		<rect class="starshine" x="3" y="1" width="1" height="1"><animate attributeName="opacity" values="0;.6;0" dur="3s" begin="0s" repeatCount="indefinite" /></rect>
		<rect class="starshine" x="4" y="2" width="1" height="1"><animate attributeName="opacity" values="0;.8;0" dur="3s" begin="2s" repeatCount="indefinite" /></rect>
		<rect class="starshine" x="4" y="1" width="1" height="1"><animate attributeName="opacity" values="0;.5;0" dur="3s" begin="1200ms" repeatCount="indefinite" /></rect>	
		<rect x="0" y="0" width="1" height="1" />
		<rect x="1" y="2" width="1" height="1" />
		<rect x="7" y="0" width="1" height="1" />
		<rect class="starshine" x="0" y="0" width="1" height="1"><animate attributeName="opacity" values="0;.6;0" dur="4s" begin="0s" repeatCount="indefinite" /></rect>
		<rect class="starshine" x="1" y="2" width="1" height="1"><animate attributeName="opacity" values="0;.8;0" dur="4s" begin="2s" repeatCount="indefinite" /></rect>
		<rect class="starshine" x="7" y="0" width="1" height="1"><animate attributeName="opacity" values="0;.8;0" dur="4s" begin="3s" repeatCount="indefinite" /></rect>
	</g>	
/* Define glow filter */
	<filter id="glow" x="0" y="0" width="79" height="99" filterUnits="userSpaceOnUse" color-interpolation-filters="sRGB">
		<feFlood flood-opacity="0" result="BackgroundImageFix"/>
		<feColorMatrix in="SourceAlpha" type="matrix" values="0 0 0 0 0 0 0 0 0 0 0 0 0 0 0 0 0 0 127 0" result="hardAlpha"/>
		<feGaussianBlur stdDeviation="6.5"/>
		<feComposite in2="hardAlpha" operator="out"/>
		<feColorMatrix type="matrix" values="0 0 0 0 0.509804 0 0 0 0 0.639216 0 0 0 0 0.368627 0 0 0 0.25 0"/>
	</filter>
</defs>

/* Tamagotchi shape */
<g filter="url(#glow)">
<path d="M64.9623 48.4258C66.7736 74.8515 63.651 85 39.151 85C14.651 85 11.6663 75.3435 13.4086 48.6718C15.151 22 19.6856 14 39.151 14C58.6164 14 63.151 22 64.9623 48.4258Z" fill="#ffffff"/>
</g>

/* Stats */
<g transform="translate(41 58)">
	<text><tspan x="-2" y="2" class="st1">ACTIVITY</tspan><tspan x="-2" y="8" class="st1">CONTRIBUTOR</tspan><tspan x="-2" y="14" class="st1">COMMUNITY</tspan></text>

	/* Activity */
	<use x="0" y="0" xlink:href="#starrow"/>
	<use x="0" y="0" xlink:href="#earnedxp" class="activity"/>
	<use x="5" y="0" xlink:href="#earnedxp" class="activity"/>
	<use x="10" y="0" xlink:href="#earnedxp" class="activity"/>

	/* Contributor */
	<use x="0" y="6" xlink:href="#counter" class="contributor"/>
	<text x="13" y="8" class="st1">x7</text>

	/* Community */
	<use x="0" y="12" xlink:href="#starrow"/>
	<use x="0" y="12" xlink:href="#earnedxp" class="community"/>
</g>

<text class="st3"><tspan x="40" y="78	">Arbitrary Update Scarf</tspan><tspan x="40" y="81">0x128a...175f</tspan></text>

/* Bunny PFP */
<svg width="39" height="39" viewBox="0 0 39 39" fill="none" xmlns="http://www.w3.org/2000/svg" x="20" y="20">
<rect x="11" y="14" width="17" height="17" fill="black"/>
<rect x="12" y="15" width="15" height="15" fill="white"/>
<rect width="1" height="13" transform="matrix(-1 0 0 1 26 16)" fill="#010101"/>
<rect width="1" height="13" transform="matrix(-1 0 0 1 14 16)" fill="#010101"/>
<rect width="3" height="1" transform="matrix(-1 0 0 1 21 16)" fill="#010101"/>
<rect x="6" y="8" width="1" height="4" fill="#010101"/>
<rect x="16" y="8" width="1" height="2" fill="#010101"/>
<rect x="24" y="2" width="1" height="2" fill="#010101"/>
<rect x="20" y="8" width="1" height="4" fill="#010101"/>
<rect x="19" y="4" width="1" height="4" fill="#010101"/>
<rect x="25" y="4" width="1" height="3" fill="#010101"/>
<rect x="26" y="7" width="1" height="3" fill="#010101"/>
<rect x="25" y="10" width="1" height="4" fill="#010101"/>
<rect x="13" y="13" width="1" height="2" fill="#010101"/>
<rect x="14" y="15" width="1" height="2" fill="#010101"/>
<rect x="24" y="14" width="1" height="3" fill="#010101"/>
<rect x="17" y="10" width="1" height="7" fill="#010101"/>
<rect x="21" y="12" width="1" height="5" fill="#010101"/>
<rect x="7" y="7" width="1" height="1" fill="#010101"/>
<rect x="14" y="6" width="1" height="1" fill="#010101"/>
<rect x="15" y="7" width="1" height="1" fill="#010101"/>
<rect x="20" y="2" width="1" height="2" fill="#010101"/>
<rect x="14" y="9" width="1" height="1" fill="#010101"/>
<rect x="12" y="12" width="1" height="1" fill="#010101"/>
<rect x="8" y="6" width="3" height="1" fill="#010101"/>
<rect x="7" y="12" width="3" height="1" fill="#010101"/>
<rect x="12" y="10" width="2" height="1" fill="#010101"/>
<rect x="10" y="11" width="3" height="1" fill="#010101"/>
<rect x="11" y="5" width="3" height="1" fill="#010101"/>
<rect x="11" y="6" width="3" height="1" fill="#FEFEFE"/>
<rect x="21" y="2" width="3" height="2" fill="#FEFEFE"/>
<rect x="20" y="4" width="5" height="3" fill="#FEFEFE"/>
<rect x="20" y="7" width="6" height="1" fill="#FEFEFE"/>
<rect x="21" y="8" width="5" height="2" fill="#FEFEFE"/>
<rect x="21" y="10" width="4" height="2" fill="#FEFEFE"/>
<rect x="22" y="12" width="3" height="2" fill="#FEFEFE"/>
<rect x="22" y="14" width="2" height="3" fill="#FEFEFE"/>
<rect x="14" y="10" width="3" height="1" fill="#FEFEFE"/>
<rect x="13" y="11" width="4" height="2" fill="#FEFEFE"/>
<rect x="14" y="13" width="3" height="2" fill="#FEFEFE"/>
<rect x="15" y="15" width="2" height="2" fill="#FEFEFE"/>
<rect x="7" y="11" width="3" height="1" fill="#FEFEFE"/>
<rect x="8" y="7" width="7" height="1" fill="#FEFEFE"/>
<rect x="7" y="8" width="9" height="1" fill="#FEFEFE"/>
<rect x="15" y="9" width="1" height="1" fill="#FEFEFE"/>
<rect x="7" y="9" width="7" height="1" fill="#FEFEFE"/>
<rect x="7" y="10" width="5" height="1" fill="#FEFEFE"/>
<rect x="21" y="1" width="3" height="1" fill="#010101"/>
<rect width="11" height="1" transform="matrix(-1 0 0 1 25 28)" fill="#010101"/>
<rect width="11" height="11" transform="matrix(-1 0 0 1 25 17)" fill="#FEFEFE"/>
<rect x="16" y="20" width="1" height="1" fill="#010101"/>
<rect x="22" y="20" width="1" height="1" fill="#010101"/>
<rect x="15" y="21" width="1" height="1" fill="#010101"/>
<rect x="17" y="21" width="1" height="1" fill="#010101"/>
<rect x="21" y="21" width="1" height="1" fill="#010101"/>
<rect x="23" y="21" width="1" height="1" fill="#010101"/>
<rect x="18" y="24" width="3" height="1" fill="#010101"/>
<rect x="19" y="25" width="1" height="1" fill="#010101"/>
</svg>


/* Special Trait */
<svg width="39" height="39" viewBox="0 0 39 39" fill="none" xmlns="http://www.w3.org/2000/svg" x="20" y="20">
<rect x="29" y="23" width="1" height="1" fill="#82A35E"/>
<rect x="30" y="23" width="1" height="1" fill="#82A35E"/>
<rect x="12" y="24" width="1" height="1" fill="#82A35E"/>
<rect x="28" y="24" width="1" height="1" fill="#82A35E"/>
<rect x="29" y="24" width="1" height="1" fill="#344635"/>
<rect x="30" y="24" width="1" height="1" fill="#82A35E"/>
<rect x="31" y="24" width="1" height="1" fill="#344635"/>
<rect x="10" y="25" width="1" height="1" fill="#82A35E"/>
<rect x="11" y="25" width="1" height="1" fill="#82A35E"/>
<rect x="12" y="25" width="1" height="1" fill="#82A35E"/>
<rect x="26" y="25" width="1" height="1" fill="#82A35E"/>
<rect x="27" y="25" width="1" height="1" fill="#82A35E"/>
<rect x="28" y="25" width="1" height="1" fill="#82A35E"/>
<rect x="29" y="25" width="1" height="1" fill="#82A35E"/>
<rect x="30" y="25" width="1" height="1" fill="#82A35E"/>
<rect x="31" y="25" width="1" height="1" fill="#82A35E"/>
<rect x="32" y="25" width="1" height="1" fill="#82A35E"/>
<rect x="10" y="26" width="1" height="1" fill="#A9C38D"/>
<rect x="11" y="26" width="1" height="1" fill="#82A35E"/>
<rect x="12" y="26" width="1" height="1" fill="#82A35E"/>
<rect x="26" y="26" width="1" height="1" fill="#82A35E"/>
<rect x="27" y="26" width="1" height="1" fill="#A9C38D"/>
<rect x="28" y="26" width="1" height="1" fill="#A9C38D"/>
<rect x="29" y="26" width="1" height="1" fill="#A9C38D"/>
<rect x="30" y="26" width="1" height="1" fill="#82A35E"/>
<rect x="31" y="26" width="1" height="1" fill="#82A35E"/>
<rect x="32" y="26" width="1" height="1" fill="#D93333"/>
<rect x="10" y="27" width="1" height="1" fill="#82A35E"/>
<rect x="11" y="27" width="1" height="1" fill="#82A35E"/>
<rect x="12" y="27" width="1" height="1" fill="#82A35E"/>
<rect x="26" y="27" width="1" height="1" fill="#82A35E"/>
<rect x="27" y="27" width="1" height="1" fill="#A9C38D"/>
<rect x="28" y="27" width="1" height="1" fill="#A9C38D"/>
<rect x="33" y="27" width="1" height="1" fill="#D93333"/>
<rect x="10" y="28" width="1" height="1" fill="#A9C38D"/>
<rect x="11" y="28" width="1" height="1" fill="#82A35E"/>
<rect x="12" y="28" width="1" height="1" fill="#82A35E"/>
<rect x="13" y="28" width="1" height="1" fill="#82A35E"/>
<rect x="14" y="28" width="1" height="1" fill="#82A35E"/>
<rect x="15" y="28" width="1" height="1" fill="#82A35E"/>
<rect x="16" y="28" width="1" height="1" fill="#82A35E"/>
<rect x="17" y="28" width="1" height="1" fill="#82A35E"/>
<rect x="18" y="28" width="1" height="1" fill="#82A35E"/>
<rect x="19" y="28" width="1" height="1" fill="#82A35E"/>
<rect x="20" y="28" width="1" height="1" fill="#82A35E"/>
<rect x="10" y="29" width="1" height="1" fill="#82A35E"/>
<rect x="11" y="29" width="1" height="1" fill="#82A35E"/>
<rect x="12" y="29" width="1" height="1" fill="#82A35E"/>
<rect x="13" y="29" width="1" height="1" fill="#82A35E"/>
<rect x="14" y="29" width="1" height="1" fill="#82A35E"/>
<rect x="15" y="29" width="1" height="1" fill="#82A35E"/>
<rect x="16" y="29" width="1" height="1" fill="#82A35E"/>
<rect x="17" y="29" width="1" height="1" fill="#82A35E"/>
<rect x="18" y="29" width="1" height="1" fill="#82A35E"/>
<rect x="19" y="29" width="1" height="1" fill="#82A35E"/>
<rect x="20" y="29" width="1" height="1" fill="#82A35E"/>
<rect x="21" y="29" width="1" height="1" fill="#82A35E"/>
<rect x="22" y="29" width="1" height="1" fill="#82A35E"/>
<rect x="23" y="29" width="1" height="1" fill="#82A35E"/>
<rect x="24" y="29" width="1" height="1" fill="#82A35E"/>
<rect x="12" y="30" width="1" height="1" fill="#82A35E"/>
<rect x="13" y="30" width="1" height="1" fill="#A9C38D"/>
<rect x="14" y="30" width="1" height="1" fill="#82A35E"/>
<rect x="15" y="30" width="1" height="1" fill="#A9C38D"/>
<rect x="16" y="30" width="1" height="1" fill="#82A35E"/>
<rect x="17" y="30" width="1" height="1" fill="#A9C38D"/>
<rect x="18" y="30" width="1" height="1" fill="#82A35E"/>
<rect x="19" y="30" width="1" height="1" fill="#A9C38D"/>
<rect x="20" y="30" width="1" height="1" fill="#82A35E"/>
<rect x="21" y="30" width="1" height="1" fill="#A9C38D"/>
<rect x="22" y="30" width="1" height="1" fill="#82A35E"/>
<rect x="23" y="30" width="1" height="1" fill="#A9C38D"/>
<rect x="24" y="30" width="1" height="1" fill="#82A35E"/>
<rect x="25" y="30" width="1" height="1" fill="#82A35E"/>
<rect x="26" y="30" width="1" height="1" fill="#82A35E"/>
<rect x="19" y="31" width="1" height="1" fill="#A9C38D"/>
<rect x="20" y="31" width="1" height="1" fill="#82A35E"/>
<rect x="21" y="31" width="1" height="1" fill="#A9C38D"/>
<rect x="22" y="31" width="1" height="1" fill="#82A35E"/>
<rect x="23" y="31" width="1" height="1" fill="#A9C38D"/>
<rect x="24" y="31" width="1" height="1" fill="#82A35E"/>
<rect x="25" y="31" width="1" height="1" fill="#A9C38D"/>
<rect x="26" y="31" width="1" height="1" fill="#82A35E"/>
<rect x="27" y="31" width="1" height="1" fill="#82A35E"/>
<rect x="25" y="32" width="1" height="1" fill="#A9C38D"/>
<rect x="26" y="32" width="1" height="1" fill="#82A35E"/>
<rect x="27" y="32" width="1" height="1" fill="#82A35E"/>
<rect x="28" y="32" width="1" height="1" fill="#82A35E"/>
<rect x="27" y="33" width="1" height="1" fill="#A9C38D"/>
<rect x="28" y="33" width="1" height="1" fill="#82A35E"/>
<rect x="28" y="34" width="1" height="1" fill="#82A35E"/>
<rect x="29" y="34" width="1" height="1" fill="#82A35E"/>
<rect x="29" y="35" width="1" height="1" fill="#82A35E"/>
</svg>



</svg>
