<svg width="39" height="39" viewBox="0 0 39 39" fill="none" xmlns="http://www.w3.org/2000/svg">
<rect x="11" y="14" width="17" height="17" fill="#010101"/>
<rect x="12" y="15" width="15" height="15" fill="#fefefe"/>
<rect x="25" y="16" width="1" height="13" fill="#010101"/>
<rect x="13" y="16" width="1" height="13" fill="#010101"/>
<rect x="18" y="16" width="3" height="1" fill="#010101"/>
<rect x="6" y="8" width="1" height="4" fill="#010101"/>
<rect x="16" y="8" width="1" height="2" fill="#010101"/>
<rect x="24" y="2" width="1" height="2" fill="#010101"/>
<rect x="20" y="8" width="1" height="4" fill="#010101"/>
<rect x="19" y="4" width="1" height="4" fill="#010101"/>
<rect x="25" y="4" width="1" height="3" fill="#010101"/>
<rect x="26" y="7" width="1" height="3" fill="#010101"/>
<rect x="25" y="10" width="1" height="4" fill="#010101"/>
<rect x="13" y="13" width="1" height="2" fill="#010101"/>
<rect x="14" y="15" width="1" height="2" fill="#010101"/>
<rect x="24" y="14" width="1" height="3" fill="#010101"/>
<rect x="17" y="10" width="1" height="7" fill="#010101"/>
<rect x="21" y="12" width="1" height="5" fill="#010101"/>
<rect x="7" y="7" width="1" height="1" fill="#010101"/>
<rect x="14" y="6" width="1" height="1" fill="#010101"/>
<rect x="15" y="7" width="1" height="1" fill="#010101"/>
<rect x="20" y="2" width="1" height="2" fill="#010101"/>
<rect x="14" y="9" width="1" height="1" fill="#010101"/>
<rect x="12" y="12" width="1" height="1" fill="#010101"/>
<rect x="8" y="6" width="3" height="1" fill="#010101"/>
<rect x="7" y="12" width="3" height="1" fill="#010101"/>
<rect x="12" y="10" width="2" height="1" fill="#010101"/>
<rect x="10" y="11" width="3" height="1" fill="#010101"/>
<rect x="11" y="5" width="3" height="1" fill="#010101"/>
<rect x="11" y="6" width="3" height="1" fill="#FEFEFE"/>
<rect x="21" y="2" width="3" height="2" fill="#FEFEFE"/>
<rect x="20" y="4" width="5" height="3" fill="#FEFEFE"/>
<rect x="20" y="7" width="6" height="1" fill="#FEFEFE"/>
<rect x="21" y="8" width="5" height="2" fill="#FEFEFE"/>
<rect x="21" y="10" width="4" height="2" fill="#FEFEFE"/>
<rect x="22" y="12" width="3" height="2" fill="#FEFEFE"/>
<rect x="22" y="14" width="2" height="3" fill="#FEFEFE"/>
<rect x="14" y="10" width="3" height="1" fill="#FEFEFE"/>
<rect x="13" y="11" width="4" height="2" fill="#FEFEFE"/>
<rect x="14" y="13" width="3" height="2" fill="#FEFEFE"/>
<rect x="15" y="15" width="2" height="2" fill="#FEFEFE"/>
<rect x="7" y="11" width="3" height="1" fill="#FEFEFE"/>
<rect x="8" y="7" width="7" height="1" fill="#FEFEFE"/>
<rect x="7" y="8" width="9" height="1" fill="#FEFEFE"/>
<rect x="15" y="9" width="1" height="1" fill="#FEFEFE"/>
<rect x="7" y="9" width="7" height="1" fill="#FEFEFE"/>
<rect x="7" y="10" width="5" height="1" fill="#FEFEFE"/>
<rect x="21" y="1" width="3" height="1" fill="#010101"/>
<rect x="14" y="28" width="11" height="1" fill="#010101"/>
<rect x="14" y="17" width="11" height="11" fill="#FEFEFE"/>
<rect x="16" y="20" width="1" height="1" fill="#010101"/>
<rect x="22" y="20" width="1" height="1" fill="#010101"/>
<rect x="15" y="21" width="1" height="1" fill="#010101"/>
<rect x="17" y="21" width="1" height="1" fill="#010101"/>
<rect x="21" y="21" width="1" height="1" fill="#010101"/>
<rect x="23" y="21" width="1" height="1" fill="#010101"/>
<rect x="18" y="24" width="3" height="1" fill="#010101"/>
<rect x="19" y="25" width="1" height="1" fill="#010101"/>
</svg>
