<svg width="39" height="39" viewBox="0 0 39 39" fill="none" xmlns="http://www.w3.org/2000/svg">
<rect x="16" y="29" width="1" height="1" fill="#75B4FF"/>
<rect x="17" y="30" width="1" height="1" fill="#75B4FF"/>
<rect x="18" y="31" width="1" height="1" fill="#FFE5A1"/>
<rect x="19" y="30" width="1" height="1" fill="#F8D270"/>
<rect x="20" y="30" width="1" height="1" fill="#F8D270"/>
<rect x="18" y="30" width="1" height="1" fill="#FFE5A2"/>
<rect x="19" y="33" width="1" height="1" fill="#FFE5A2"/>
<rect x="19" y="33" width="1" height="1" fill="#FFE5A2"/>
<rect x="19" y="32" width="1" height="1" fill="#FFE5A2"/>
<rect x="18" y="32" width="1" height="1" fill="#FFE5A2"/>
<rect x="20" y="32" width="1" height="1" fill="#FFE5A2"/>
<rect x="19" y="34" width="1" height="1" fill="#FFE5A2"/>
<rect x="19" y="34" width="1" height="1" fill="#FFE5A2"/>
<rect x="20" y="34" width="1" height="1" fill="#FFE5A2"/>
<rect x="20" y="35" width="1" height="1" fill="#F8D270"/>
<rect x="19" y="35" width="1" height="1" fill="#FFE5A2"/>
<rect x="22" y="29" width="1" height="1" fill="#75B4FF"/>
<rect x="21" y="30" width="1" height="1" fill="#75B4FF"/>
<rect x="20" y="31" width="1" height="1" fill="#F8D270"/>
</svg>
